<?xml version="1.0" standalone="no"?>
<!DOCTYPE svg PUBLIC "-//W3C//DTD SVG 20010904//EN"
 "http://www.w3.org/TR/2001/REC-SVG-20010904/DTD/svg10.dtd">
<svg version="1.0" xmlns="http://www.w3.org/2000/svg"
 width="2863.000000pt" height="2863.000000pt" viewBox="0 0 2863.000000 2863.000000"
 preserveAspectRatio="xMidYMid meet">
<metadata>
Created by potrace 1.15, written by Peter Selinger 2001-2017
</metadata>
<g transform="translate(0.000000,2863.000000) scale(0.100000,-0.100000)"
fill="#000000" stroke="none">
<path d="M23650 26169 c-344 -9 -633 -39 -1020 -105 -1212 -205 -2339 -680
-3263 -1375 -74 -56 -139 -98 -147 -95 -8 2 -78 33 -155 69 -677 312 -1485
568 -2248 712 -852 160 -1719 200 -2607 119 -1721 -156 -3385 -816 -4669
-1853 -79 -64 -210 -166 -291 -226 -259 -195 -409 -324 -659 -570 -506 -498
-932 -1040 -1556 -1978 -209 -315 -275 -396 -409 -503 -261 -209 -597 -415
-1296 -794 -916 -497 -1217 -697 -1645 -1096 -220 -204 -329 -295 -478 -395
-324 -220 -487 -379 -798 -784 -437 -567 -789 -1120 -1112 -1745 -518 -1000
-902 -2154 -1086 -3258 -115 -689 -149 -1138 -153 -2052 l-2 -515 58 -400 c83
-577 103 -671 258 -1215 297 -1046 569 -1773 904 -2420 206 -395 527 -915 754
-1220 203 -272 344 -438 750 -885 299 -329 505 -562 629 -715 102 -125 281
-360 326 -428 l28 -42 71 0 72 0 28 108 c180 672 541 1366 1029 1977 893 1118
2176 1909 3542 2184 370 75 562 91 1105 90 580 0 781 -16 1190 -99 933 -189
1821 -625 2610 -1283 176 -147 567 -535 716 -711 537 -632 940 -1348 1185
-2103 l52 -163 71 0 71 1 105 131 c58 73 330 402 604 732 927 1115 1293 1594
1651 2156 65 102 136 205 159 228 53 57 129 108 241 165 50 24 149 77 220 117
72 40 373 196 670 347 589 301 857 443 1065 566 222 132 330 205 330 223 0 9
-22 130 -49 268 -85 432 -143 815 -171 1131 -18 202 -24 663 -11 855 35 515
144 988 322 1393 78 177 307 589 445 799 302 459 755 880 1282 1191 531 315
1183 532 1923 640 l154 23 32 189 c53 320 94 671 125 1090 17 227 17 1152 0
1380 -68 916 -208 1691 -446 2477 -238 786 -536 1467 -1025 2347 -189 339
-252 473 -297 629 -26 92 -26 94 -9 139 10 25 60 108 111 185 440 654 1029
1226 1754 1700 908 595 1976 1033 3650 1497 244 67 285 82 288 99 3 16 -11 25
-80 52 -46 19 -168 71 -273 118 -784 348 -1644 613 -2454 757 -255 45 -418 68
-741 105 -434 49 -766 58 -1430 39z m775 -1144 c345 -36 715 -111 1010 -205
72 -23 96 -36 113 -60 17 -22 19 -31 10 -34 -530 -157 -878 -306 -1283 -549
-408 -244 -716 -487 -1071 -841 -291 -292 -506 -555 -717 -876 -452 -691 -761
-1538 -837 -2295 -6 -60 -13 -120 -16 -132 l-4 -23 -373 1 c-204 1 -444 5
-533 8 l-161 6 59 235 c124 495 299 1052 456 1445 340 855 764 1555 1275 2109
51 55 178 175 282 267 205 180 292 265 283 275 -9 8 -138 -35 -313 -103 -342
-134 -707 -346 -1000 -579 -125 -100 -444 -415 -557 -549 -536 -642 -951
-1469 -1241 -2474 l-45 -154 -62 59 c-79 75 -207 233 -282 349 -68 103 -209
386 -263 525 -50 127 -128 366 -155 469 -36 141 -27 203 35 261 50 46 290 322
555 640 585 700 834 954 1205 1230 786 586 1734 931 2770 1010 170 12 681 4
860 -15z m-8680 -1115 c358 -27 701 -71 972 -126 575 -115 1139 -300 1655
-543 102 -48 107 -52 114 -87 14 -76 -3 -157 -84 -404 -120 -366 -225 -808
-252 -1060 -16 -156 -13 -655 6 -779 72 -487 290 -929 624 -1261 318 -317 627
-508 1370 -845 l235 -107 92 6 c125 9 236 28 438 79 l170 42 500 0 500 0 120
-28 c152 -36 362 -105 469 -155 l82 -39 57 -126 c73 -161 145 -378 196 -587
63 -260 129 -613 141 -750 6 -69 17 -186 25 -260 39 -367 44 -486 51 -1345 4
-473 4 -874 0 -891 -7 -31 -9 -31 -79 -38 -103 -10 -184 -30 -342 -87 -563
-204 -1003 -441 -1460 -786 -228 -173 -373 -299 -595 -522 -402 -402 -705
-798 -985 -1285 -576 -1006 -875 -2108 -875 -3226 0 -243 8 -350 51 -705 16
-137 31 -261 32 -273 2 -21 -8 -28 -73 -54 -41 -16 -259 -105 -485 -198 -707
-290 -1279 -510 -1293 -496 -2 3 30 135 72 293 170 641 200 806 266 1433 61
586 44 1093 -61 1760 -83 536 -307 1187 -558 1625 -281 490 -591 839 -1094
1232 -81 63 -150 113 -153 110 -3 -3 24 -56 59 -118 335 -591 561 -1291 702
-2174 19 -121 35 -251 35 -290 0 -38 9 -198 20 -355 24 -336 25 -509 6 -680
-8 -69 -17 -213 -21 -320 -6 -171 -12 -230 -56 -480 -87 -498 -145 -737 -259
-1075 -144 -426 -367 -914 -575 -1260 -108 -179 -116 -190 -165 -215 l-34 -18
-126 118 c-1273 1196 -2942 1967 -4675 2159 -318 35 -502 45 -865 45 -776 -1
-1425 -98 -2161 -324 -469 -144 -1088 -391 -1374 -547 -545 -299 -1050 -690
-1670 -1293 -88 -86 -205 -196 -260 -245 -55 -50 -276 -264 -492 -478 -458
-453 -487 -474 -542 -389 -899 1376 -1398 2870 -1492 4462 -17 292 -7 1317 14
1475 9 66 23 192 32 280 74 758 313 1623 675 2440 677 1526 1444 2584 2395
3303 77 58 187 136 245 173 236 153 311 204 440 300 170 126 277 191 405 247
315 137 600 201 1150 257 138 14 338 37 446 50 164 20 210 23 290 15 342 -35
669 -134 994 -304 187 -98 259 -144 356 -231 192 -171 236 -205 318 -251 213
-119 437 -281 848 -615 275 -224 443 -352 583 -447 l105 -72 8 48 c10 61 0
297 -19 437 -71 526 -330 1105 -694 1555 -122 151 -464 491 -615 612 -325 260
-643 447 -1026 603 -172 69 -289 130 -289 148 0 26 416 592 629 857 340 423
756 868 1102 1181 565 511 1209 950 1759 1197 419 189 902 358 1337 467 571
142 1053 211 1743 249 118 7 722 -3 865 -14z"/>
<path d="M18975 17246 c-527 -78 -1001 -428 -1249 -925 -134 -267 -194 -500
-203 -796 -8 -253 14 -406 93 -650 189 -578 651 -1016 1223 -1159 241 -61 474
-67 686 -19 132 29 149 48 220 248 63 175 130 311 214 436 185 276 395 455
714 609 214 103 227 131 228 455 0 273 -24 418 -107 655 -132 382 -412 732
-741 927 -166 98 -347 169 -520 204 -137 27 -423 35 -558 15z"/>
<path d="M8363 14185 c-498 -128 -870 -292 -1281 -565 -446 -296 -821 -654
-1168 -1115 -68 -91 -222 -308 -228 -322 -1 -1 -100 -18 -221 -38 -612 -102
-934 -238 -1180 -496 -150 -158 -233 -337 -282 -614 -15 -84 -18 -157 -17
-455 1 -453 23 -696 125 -1370 68 -454 119 -808 119 -834 0 -14 5 -26 11 -26
14 0 82 47 224 155 124 95 315 229 565 400 473 321 717 513 940 735 223 222
338 375 440 585 99 203 158 406 180 624 25 253 15 287 -202 701 -85 161 -148
321 -148 375 0 35 216 252 355 356 359 267 819 453 1420 574 71 14 133 29 136
33 19 20 204 627 249 817 56 238 88 357 120 449 11 33 20 61 20 63 0 9 -57 -1
-177 -32z m-2990 -2781 c41 -9 122 -40 187 -72 102 -50 125 -66 206 -146 77
-77 98 -105 138 -186 80 -164 97 -311 50 -448 -63 -183 -174 -363 -309 -498
-103 -103 -261 -223 -590 -449 -126 -87 -265 -185 -308 -217 -44 -33 -84 -57
-92 -54 -22 8 -43 101 -50 221 -4 61 -15 146 -25 190 -54 237 -75 505 -67 845
4 182 10 262 23 310 63 245 240 438 459 501 80 23 279 25 378 3z"/>
</g>
</svg>
